# OBJ generated by ONSHAPE, modified for UV Texture Mapping
mtllib CUBE.mtl
g Part 1

# Vertices (Positions)
v -0.025 -0.05 -0.025
v -0.025 0 -0.025
v 0.025 0 -0.025
v 0.025 -0.05 -0.025
v 0.025 0 0.025
v 0.025 -0.05 0.025
v -0.025 0 0.025
v -0.025 -0.05 0.025

# Texture Coordinates (UVs)
vt 0.0 0.0
vt 1.0 0.0
vt 1.0 1.0
vt 0.0 1.0

# Normals
vn 0 0 -1
vn 1 0 0
vn 0 0 1
vn -1 0 0
vn 0 -1 0
vn 0 1 0

usemtl 0.615686_0.811765_0.929412_0.000000_0.000000

o mesh0
f 1/1/1 2/4/1 3/3/1
f 3/3/1 4/2/1 1/1/1

o mesh1
f 4/1/2 3/4/2 5/3/2
f 5/3/2 6/2/2 4/1/2

o mesh2
f 6/1/3 5/4/3 7/3/3
f 7/3/3 8/2/3 6/1/3

o mesh3
f 8/1/4 7/4/4 2/3/4
f 2/3/4 1/2/4 8/1/4

o mesh4
f 8/1/5 1/4/5 4/3/5
f 4/3/5 6/2/5 8/1/5

o mesh5
f 5/1/6 3/4/6 2/3/6
f 2/3/6 7/2/6 5/1/6