# Blender 5.0.1
# www.blender.org
mtllib triangle.mtl
o Cube
v 0.008767 -1.000000 1.414186
v -1.414186 -1.000000 0.008767
v 0.000000 1.072537 0.000000
v 0.006333 -1.000000 1.414199
v 1.414199 -1.000000 -0.006333
v -0.006333 -1.000000 -1.414199
v -1.414199 -1.000000 0.006333
v -0.008767 -1.000000 -1.414186
v 1.414186 -1.000000 -0.008767
vn -0.6329 0.4346 0.6408
vn 0.6397 0.4346 0.6340
vn -0.6397 0.4346 -0.6340
vn 0.6329 0.4346 -0.6408
vn -0.0000 -1.0000 -0.0000
vn -0.0000 1.0000 -0.0000
vt 0.000000 0.000000
s 0
usemtl Material
f 1/1/1 3/1/1 2/1/1
f 4/1/2 5/1/2 3/1/2
f 6/1/3 7/1/3 3/1/3
f 8/1/4 3/1/4 9/1/4
f 1/1/5 2/1/5 7/1/5 6/1/5
f 5/1/6 6/1/6 7/1/6 2/1/6 1/1/6
